<svg width="26" height="27" viewBox="0 0 26 27" fill="none" xmlns="http://www.w3.org/2000/svg">
<path d="M13 1.58386C9.87296 1.55209 6.8612 2.76319 4.62667 4.951C2.39213 7.13881 1.11767 10.1243 1.08337 13.2514C1.09542 15.7226 1.8904 18.1265 3.35411 20.1177C4.81782 22.1089 6.87496 23.5849 9.23004 24.3339C9.82588 24.4422 10.0425 24.0847 10.0425 23.7705C10.0425 23.4564 10.0425 22.763 10.0425 21.788C6.72754 22.4922 6.02337 20.228 6.02337 20.228C5.8027 19.5173 5.33354 18.9097 4.70171 18.5164C3.61837 17.8014 4.78837 17.8122 4.78837 17.8122C5.16283 17.8623 5.52109 17.9964 5.83629 18.2047C6.15149 18.413 6.41545 18.6899 6.60837 19.0147C6.94457 19.5977 7.4962 20.0253 8.14455 20.2056C8.7929 20.386 9.48613 20.3045 10.075 19.9789C10.1356 19.3856 10.4043 18.833 10.8334 18.4189C8.19004 18.1264 5.41671 17.1297 5.41671 12.6555C5.39307 11.4884 5.8243 10.3579 6.61921 9.50303C6.25719 8.50102 6.29993 7.39737 6.73837 6.42636C6.73837 6.42636 7.74587 6.1122 9.98837 7.61803C11.9404 7.09785 13.9947 7.09785 15.9467 7.61803C18.2217 6.1122 19.1967 6.42636 19.1967 6.42636C19.6351 7.39737 19.6779 8.50102 19.3159 9.50303C20.1292 10.3422 20.5839 11.4652 20.5834 12.6339C20.5834 17.1189 17.7884 18.1047 15.1667 18.3972C15.4538 18.6759 15.6755 19.0148 15.816 19.3894C15.9565 19.764 16.0122 20.1651 15.9792 20.5639V23.7597C15.9792 23.7597 16.1959 24.4422 16.7917 24.323C19.1401 23.5695 21.1903 22.0931 22.6495 20.1047C24.1087 18.1163 24.9022 15.7177 24.9167 13.2514C24.8824 10.1243 23.6079 7.13881 21.3734 4.951C19.1389 2.76319 16.1271 1.55209 13 1.58386Z" fill="#6E7681"/>
</svg>
