<svg width="16" height="16" viewBox="0 0 16 16" fill="none" xmlns="http://www.w3.org/2000/svg">
<path d="M12.4428 15.0531C12.3228 15.0536 12.2045 15.0253 12.0978 14.9706L8.27277 12.9681L4.44777 14.9706C4.32357 15.0359 4.18353 15.065 4.04358 15.0547C3.90363 15.0444 3.76938 14.995 3.65609 14.9122C3.54281 14.8294 3.45503 14.7165 3.40273 14.5862C3.35044 14.456 3.33573 14.3137 3.36027 14.1756L4.11027 9.95307L1.02027 6.95307C0.923864 6.85686 0.855475 6.73622 0.822442 6.60409C0.789409 6.47196 0.79298 6.33333 0.832771 6.20307C0.876241 6.06978 0.956203 5.95133 1.06358 5.86119C1.17096 5.77104 1.30146 5.7128 1.44027 5.69307L5.71527 5.07057L7.59777 1.22307C7.65918 1.09627 7.75507 0.989327 7.87445 0.914501C7.99383 0.839674 8.13188 0.799988 8.27277 0.799988C8.41366 0.799988 8.55171 0.839674 8.67109 0.914501C8.79047 0.989327 8.88636 1.09627 8.94777 1.22307L10.8528 5.06307L15.1278 5.68557C15.2666 5.7053 15.3971 5.76354 15.5045 5.85369C15.6118 5.94384 15.6918 6.06228 15.7353 6.19557C15.7751 6.32583 15.7786 6.46446 15.7456 6.59659C15.7126 6.72872 15.6442 6.84936 15.5478 6.94557L12.4578 9.94557L13.2078 14.1681C13.2345 14.3087 13.2205 14.454 13.1674 14.5869C13.1142 14.7198 13.0241 14.8347 12.9078 14.9181C12.772 15.0132 12.6084 15.0607 12.4428 15.0531ZM8.27277 11.3781C8.39299 11.375 8.51193 11.4035 8.61777 11.4606L11.4453 12.9606L10.9053 9.80307C10.8843 9.68251 10.8932 9.55865 10.9311 9.4423C10.969 9.32595 11.0348 9.22064 11.1228 9.13557L13.3728 6.93807L10.2228 6.47307C10.1073 6.44981 9.99885 6.39967 9.90633 6.3267C9.81382 6.25373 9.7398 6.15999 9.69027 6.05307L8.27277 3.24057L6.85527 6.05307C6.80101 6.16085 6.72154 6.25394 6.62361 6.32445C6.52569 6.39496 6.41219 6.44079 6.29277 6.45807L3.14277 6.92307L5.39277 9.12057C5.48073 9.20565 5.54653 9.31095 5.58444 9.4273C5.62236 9.54365 5.63122 9.66751 5.61027 9.78807L5.07027 12.9081L7.89777 11.4081C8.01758 11.3635 8.1474 11.3531 8.27277 11.3781Z" fill="#8B949E"/>
</svg>
