<svg width="16" height="16" viewBox="0 0 16 16" fill="none" xmlns="http://www.w3.org/2000/svg">
<path d="M1.69995 2.48751C1.69995 2.27865 1.78292 2.07835 1.9306 1.93067C2.07829 1.78298 2.27859 1.70001 2.48745 1.70001H13.5125C13.7213 1.70001 13.9216 1.78298 14.0693 1.93067C14.217 2.07835 14.3 2.27865 14.3 2.48751V4.06251C14.3 4.27137 14.217 4.47167 14.0693 4.61936C13.9216 4.76704 13.7213 4.85001 13.5125 4.85001H2.48745C2.27859 4.85001 2.07829 4.76704 1.9306 4.61936C1.78292 4.47167 1.69995 4.27137 1.69995 4.06251V2.48751ZM1.69995 8.78751C1.69995 8.57865 1.78292 8.37835 1.9306 8.23067C2.07829 8.08298 2.27859 8.00001 2.48745 8.00001H7.21245C7.42131 8.00001 7.62161 8.08298 7.7693 8.23067C7.91698 8.37835 7.99995 8.57865 7.99995 8.78751V13.5125C7.99995 13.7214 7.91698 13.9217 7.7693 14.0694C7.62161 14.217 7.42131 14.3 7.21245 14.3H2.48745C2.27859 14.3 2.07829 14.217 1.9306 14.0694C1.78292 13.9217 1.69995 13.7214 1.69995 13.5125V8.78751ZM11.15 8.78751C11.15 8.57865 11.2329 8.37835 11.3806 8.23067C11.5283 8.08298 11.7286 8.00001 11.9375 8.00001H13.5125C13.7213 8.00001 13.9216 8.08298 14.0693 8.23067C14.217 8.37835 14.3 8.57865 14.3 8.78751V13.5125C14.3 13.7214 14.217 13.9217 14.0693 14.0694C13.9216 14.217 13.7213 14.3 13.5125 14.3H11.9375C11.7286 14.3 11.5283 14.217 11.3806 14.0694C11.2329 13.9217 11.15 13.7214 11.15 13.5125V8.78751Z" stroke="#8B949E" stroke-width="1.6" stroke-linecap="round" stroke-linejoin="round"/>
</svg>
