<svg width="18" height="18" viewBox="0 0 18 18" fill="none" xmlns="http://www.w3.org/2000/svg">
<path d="M11.925 7.34843L5.17505 3.45593" stroke="#8B949E" stroke-width="1.6" stroke-linecap="round" stroke-linejoin="round"/>
<path d="M15.3 12.2984V6.29845C15.2998 6.03541 15.2303 5.77706 15.0987 5.54932C14.9671 5.32159 14.7779 5.13247 14.55 5.00095L9.30005 2.00095C9.07202 1.8693 8.81335 1.79999 8.55005 1.79999C8.28674 1.79999 8.02808 1.8693 7.80005 2.00095L2.55005 5.00095C2.32225 5.13247 2.13303 5.32159 2.00139 5.54932C1.86976 5.77706 1.80032 6.03541 1.80005 6.29845V12.2984C1.80032 12.5615 1.86976 12.8198 2.00139 13.0476C2.13303 13.2753 2.32225 13.4644 2.55005 13.5959L7.80005 16.5959C8.02808 16.7276 8.28674 16.7969 8.55005 16.7969C8.81335 16.7969 9.07202 16.7276 9.30005 16.5959L14.55 13.5959C14.7779 13.4644 14.9671 13.2753 15.0987 13.0476C15.2303 12.8198 15.2998 12.5615 15.3 12.2984Z" stroke="#8B949E" stroke-width="1.6" stroke-linecap="round" stroke-linejoin="round"/>
<path d="M2.00244 5.51843L8.54994 9.30593L15.0974 5.51843" stroke="#8B949E" stroke-width="1.6" stroke-linecap="round" stroke-linejoin="round"/>
<path d="M8.55005 16.8585V9.29846" stroke="#8B949E" stroke-width="1.6" stroke-linecap="round" stroke-linejoin="round"/>
</svg>