<svg width="13" height="15" viewBox="0 0 13 15" fill="none" xmlns="http://www.w3.org/2000/svg">
<path d="M11.9501 0.700012H2.95007C2.35334 0.700012 1.78104 0.937065 1.35908 1.35902C0.937126 1.78098 0.700073 2.35328 0.700073 2.95001V11.95C0.700073 12.5467 0.937126 13.119 1.35908 13.541C1.78104 13.963 2.35334 14.2 2.95007 14.2H11.9501C12.149 14.2 12.3398 14.121 12.4804 13.9803C12.6211 13.8397 12.7001 13.6489 12.7001 13.45V1.45001C12.7001 1.2511 12.6211 1.06033 12.4804 0.919682C12.3398 0.77903 12.149 0.700012 11.9501 0.700012ZM2.95007 2.20001H11.2001V9.70001H2.95007C2.69422 9.70204 2.44058 9.7477 2.20007 9.83501V2.95001C2.20007 2.7511 2.27909 2.56033 2.41974 2.41968C2.5604 2.27903 2.75116 2.20001 2.95007 2.20001ZM2.95007 12.7C2.75116 12.7 2.5604 12.621 2.41974 12.4803C2.27909 12.3397 2.20007 12.1489 2.20007 11.95C2.20007 11.7511 2.27909 11.5603 2.41974 11.4197C2.5604 11.279 2.75116 11.2 2.95007 11.2H11.2001V12.7H2.95007Z" fill="#8B949E"/>
</svg>
