<svg width="46" height="54" viewBox="0 0 46 54" fill="none" xmlns="http://www.w3.org/2000/svg">
<path d="M30.4998 42V43.875C30.4998 45.8641 29.7097 47.7718 28.3031 49.1783C26.8966 50.5848 24.989 51.375 22.9998 51.375C21.0107 51.375 19.1031 50.5848 17.6965 49.1783C16.29 47.7718 15.4998 45.8641 15.4998 43.875V42M43.1186 38.1832C40.1092 34.5 37.9846 32.625 37.9846 22.4707C37.9846 13.1719 33.2362 9.85898 29.328 8.25C28.8088 8.03672 28.3202 7.54687 28.162 7.01367C27.4764 4.68047 25.5545 2.625 22.9998 2.625C20.4452 2.625 18.5221 4.68164 17.8436 7.01602C17.6854 7.55508 17.1967 8.03672 16.6776 8.25C12.7647 9.86133 8.02094 13.1625 8.02094 22.4707C8.01508 32.625 5.89047 34.5 2.8811 38.1832C1.63422 39.709 2.72641 42 4.90727 42H41.1041C43.2733 42 44.3584 39.702 43.1186 38.1832Z" stroke="#F8F8F8" stroke-width="3.75" stroke-linecap="round" stroke-linejoin="round"/>
</svg>
