<svg width="16" height="16" viewBox="0 0 16 16" fill="none" xmlns="http://www.w3.org/2000/svg">
<path d="M12.4 2.3999H4.40002C3.86959 2.3999 3.36088 2.61062 2.98581 2.98569C2.61074 3.36076 2.40002 3.86947 2.40002 4.3999V12.3999C2.40002 12.9303 2.61074 13.439 2.98581 13.8141C3.36088 14.1892 3.86959 14.3999 4.40002 14.3999H12.4C12.5768 14.3999 12.7464 14.3297 12.8714 14.2046C12.9965 14.0796 13.0667 13.91 13.0667 13.7332V3.06657C13.0667 2.88976 12.9965 2.72019 12.8714 2.59516C12.7464 2.47014 12.5768 2.3999 12.4 2.3999ZM4.40002 3.73324H11.7334V10.3999H4.40002C4.1726 10.4017 3.94714 10.4423 3.73336 10.5199V4.3999C3.73336 4.22309 3.8036 4.05352 3.92862 3.9285C4.05364 3.80347 4.22321 3.73324 4.40002 3.73324ZM4.40002 13.0666C4.22321 13.0666 4.05364 12.9963 3.92862 12.8713C3.8036 12.7463 3.73336 12.5767 3.73336 12.3999C3.73336 12.2231 3.8036 12.0535 3.92862 11.9285C4.05364 11.8035 4.22321 11.7332 4.40002 11.7332H11.7334V13.0666H4.40002Z" fill="#8B949E"/>
</svg>
