<svg width="30" height="20" viewBox="0 0 30 20" fill="none" xmlns="http://www.w3.org/2000/svg">
<path d="M14.9364 17.8368C14.8031 17.8373 14.6716 17.8059 14.553 17.7451L10.303 15.5201L6.05302 17.7451C5.91502 17.8177 5.75942 17.8501 5.60392 17.8386C5.44842 17.8271 5.29926 17.7723 5.17338 17.6803C5.04751 17.5882 4.94997 17.4627 4.89187 17.3181C4.83377 17.1734 4.81742 17.0153 4.84469 16.8618L5.67802 12.1701L2.24469 8.83676C2.13757 8.72986 2.06158 8.59582 2.02488 8.449C1.98818 8.30219 1.99215 8.14815 2.03636 8.00343C2.08466 7.85532 2.17351 7.72372 2.29282 7.62356C2.41213 7.52339 2.55713 7.45868 2.71136 7.43676L7.46136 6.74509L9.55302 2.47009C9.62126 2.3292 9.72781 2.21038 9.86045 2.12724C9.9931 2.0441 10.1465 2 10.303 2C10.4596 2 10.613 2.0441 10.7456 2.12724C10.8782 2.21038 10.9848 2.3292 11.053 2.47009L13.1697 6.73676L17.9197 7.42843C18.0739 7.45035 18.2189 7.51506 18.3382 7.61522C18.4575 7.71539 18.5464 7.84699 18.5947 7.99509C18.6389 8.13982 18.6429 8.29386 18.6062 8.44067C18.5695 8.58748 18.4935 8.72153 18.3864 8.82842L14.953 12.1618L15.7864 16.8534C15.8161 17.0097 15.8005 17.1711 15.7415 17.3188C15.6824 17.4665 15.5823 17.5941 15.453 17.6868C15.3021 17.7925 15.1204 17.8453 14.9364 17.8368ZM10.303 13.7534C10.4366 13.7501 10.5688 13.7817 10.6864 13.8451L13.828 15.5118L13.228 12.0034C13.2047 11.8695 13.2146 11.7318 13.2567 11.6026C13.2988 11.4733 13.372 11.3563 13.4697 11.2618L15.9697 8.82009L12.4697 8.30343C12.3413 8.27759 12.2209 8.22187 12.1181 8.14079C12.0153 8.05971 11.9331 7.95555 11.878 7.83676L10.303 4.71176L8.72802 7.83676C8.66773 7.95651 8.57943 8.05995 8.47063 8.13829C8.36182 8.21663 8.23572 8.26756 8.10302 8.28676L4.60302 8.80342L7.10302 11.2451C7.20076 11.3396 7.27387 11.4566 7.316 11.5859C7.35812 11.7152 7.36797 11.8528 7.34469 11.9868L6.74469 15.4534L9.88636 13.7868C10.0195 13.7373 10.1637 13.7257 10.303 13.7534Z" fill="#8B949E"/>
<path d="M26.5957 15.5H25.5547V7.63525C25.4743 7.71566 25.3558 7.80876 25.1992 7.91455C25.0469 8.01611 24.8734 8.11768 24.6787 8.21924C24.4883 8.3208 24.2852 8.41602 24.0693 8.50488C23.8577 8.59375 23.6504 8.66357 23.4473 8.71436V7.66064C23.6758 7.59717 23.917 7.51253 24.1709 7.40674C24.429 7.29671 24.6808 7.17611 24.9263 7.04492C25.1759 6.90951 25.4108 6.76986 25.6309 6.62598C25.8509 6.47786 26.0413 6.33398 26.2021 6.19434H26.5957V15.5Z" fill="#6E7681"/>
</svg>
